<svg xmlns="http://www.w3.org/2000/svg" viewBox="0 0 512 512"><style>@keyframes animate-svg-stroke-1{0%{stroke-dashoffset:296.2em}100%{stroke-dashoffset:0}}@keyframes animate-svg-fill{0%{fill:transparent;stroke:#282525;stroke-width:2}100%{stroke-width:0}}#logo-spiral{stroke-dasharray:296.2em;animation:2s .5s both animate-svg-stroke-1,1.7s cubic-bezier(.47,0,.745,.715) 1.2s both animate-svg-fill}</style><path id="logo-spiral" fill="#A95502" d="M504.6 288.6c-1.3 21.9-.7 40-7.9 57a249.4 249.4 0 01-56.2 84.8c-12.3 11.7-24.6 23.4-37.2 34.7-4.3 3.9-9.8 6.5-14.8 9.5a188.3 188.3 0 01-59.8 23.4c-9.9 2-19.5 5.9-29.5 7.5-17 2.8-34.2 5.5-51.3 6.2a184.9 184.9 0 01-130.4-45 461 461 0 01-39.5-37c-12.3-13.1-25.1-26.1-32-43.4-5.7-14.4-12.4-28.3-18.1-42.7-6.2-15.6-12.5-31.3-17.1-47.5-2.8-9.6-3.4-20-3.4-30.1-.1-14 .4-28 2.3-41.9a231.4 231.4 0 0127.1-83.6c7.9-14 15.3-28.7 25.3-41.2A306.2 306.2 0 0198.7 63c17.1-15.3 37.8-25.1 58.5-34.8 4.2-2 9-2.6 13.4-4 15.7-5.2 31.3-10.9 47.2-15.6 8-2.3 16.4-3.2 24.7-4.2 14.8-1.8 29.6-4 44.4-4.4 10-.3 20.2 1.5 30.1 3.5 18.2 3.8 36.6 7.5 54.3 13.1 12.1 3.8 23.3 10.9 34.9 16.5 21.1 10.1 37.7 26.3 54.5 41.9 3.5 3.3 5.6 8.3 7.5 12.9 1.4 3.3-1 5.5-4.2 3.9a231 231 0 01-20.7-11.4c-8-5-15.5-10.8-23.5-15.7-6.6-4.1-13.5-7.9-20.6-10.9C388 49 376.9 44.1 365.3 41a210.5 210.5 0 00-50.7-6.7c-10.3-.2-20.5-1.6-30.8-1.4-11.5.2-23 1.4-34.4 2.7-19.8 2.2-38.1 9.5-56.7 16.1a198.1 198.1 0 00-56 32c-5 3.9-8.4 9.9-12.3 15.1-9.6 13-19.4 25.9-28.6 39.2-6.6 9.5-13.4 19.2-18.5 29.5-7.2 14.7-13.5 30-19 45.4a127 127 0 00-7.7 31.9c-.8 10.3 1.3 20.9 2.5 31.3.8 7.1 1.2 14.5 3.8 21a659.8 659.8 0 0021.6 47.8c4.9 9.8 11.3 18.8 16.8 28.2a102 102 0 0028.8 29 406.8 406.8 0 0046 31.5c14.8 8.3 30.9 15 47.2 20a190 190 0 0045.4 8.2c15.9.8 31.9-.6 47.1-7.5 13.5-6.1 28.8-8.9 41.5-16.1 22-12.5 43.1-27.4 59.3-47.1 12.9-15.6 27.9-30.1 35.2-49.8a136.9 136.9 0 008.3-62.9 120.2 120.2 0 00-14.8-47.4c-6.2-10.9-15-20.5-23.1-30.3a152.2 152.2 0 00-37.4-33.7c-5.4-3.4-10-8.4-15.6-11.2-16.2-8.1-32.8-15.5-49.4-22.9a49.9 49.9 0 00-30-2.9c-12.4 2.5-24.5 6.9-37 9.2a102.2 102.2 0 00-43.5 21.4c-16 12.2-30.4 26.4-37.2 46-6.7 19.2-12.7 38.6-11.1 59.4 1.8 22.8 5.9 44.8 21.9 62.4 4.1 4.5 8.6 9 13.6 12.5 21.1 14.4 43.6 25.8 70.1 24.9 24.6-.9 47.5-8.2 66.7-23.8a66.6 66.6 0 0020.2-32.9c1.9-6.1 2.6-12.6 3.5-18.9 1.7-11.7-3.2-21.7-8.8-31.5-2-3.5-3.2-7.5-4.4-11.4-5.2-18.1-19.1-25.8-38.7-21-4.3 1.1-8.2 3.4-12.3 5.3-7.9 3.6-25.1 3.8-32.5-5.2-4.8-5.8-3.6-19.6 2-27.2 8.3-11.3 20.6-15.1 33-18.4a91.1 91.1 0 0145.5.9c16.9 4.1 28 15.9 38.1 28.9a109.9 109.9 0 0120.2 46c2.8 13.8 1.7 28.3 1.9 42.6.1 6.1-.3 12.4-1.6 18.4-4.6 21.8-17.8 37.9-34.2 52.2-19.4 17-42.7 25-66.5 32.8a133 133 0 01-46.5 6.7c-21.5-.8-42.7-3.7-62.2-15.7-17-10.6-30-24.4-41.3-40.6-10.4-15-20.4-30-26.4-47.6-7-20.6-10.4-41.2-8.7-63.1 1.2-15.4 5.2-30.2 11.9-43.4 8.9-17.3 18.4-34.6 32.9-48.4 7.3-7 14.2-14.5 21.6-21.3 3.8-3.5 8.1-6.7 12.7-8.9 17.9-8.2 35.7-16.6 54.2-23.5 8.5-3.2 18.4-2.8 27.6-4 23.1-3.1 46.1-2.6 68.7 2.7 10.8 2.5 21 7.6 31.3 11.9 8.2 3.4 16.1 7.5 24.2 11.2a214.3 214.3 0 0164.2 47.2c14.7 15.4 27.6 32 37.3 50.8a64.4 64.4 0 015.4 21c2.2 18.3 3.7 36.6 5 51z"/></svg>